<?xml version="1.0" encoding="UTF-8"?>
<svg xmlns="http://www.w3.org/2000/svg" viewBox="0 0 24 24" role="img" aria-hidden="true">
  <title>Apio</title>
  <g fill="#7BB661" stroke="#2E6B2A" stroke-width="0.9" stroke-linejoin="round">
    <path d="M12 3c-2 2-3 4-3 7 0 1.5.5 2.8 1.5 4 .5 2 .5 4-.5 8h4c-1-4-1-6-.5-8 1-1.2 1.5-2.5 1.5-4 0-3-1-5-3-7z"/>
    <path d="M9 9c-2 0-3.5 1-4 3 .5 1 1.3 1.6 2.3 2"/>
    <path d="M15 9c2 0 3.5 1 4 3-.5 1-1.3 1.6-2.3 2"/>
  </g>
  <g fill="none" stroke="#2E6B2A" stroke-width="0.7" stroke-linecap="round">
    <path d="M12 5v15"/>
    <path d="M10.5 12c.5.5 1 .8 1.5.8s1-.3 1.5-.8"/>
  </g>
</svg>
