<?xml version="1.0" encoding="UTF-8"?>
<svg xmlns="http://www.w3.org/2000/svg" viewBox="0 0 24 24" role="img" aria-hidden="true">
  <title>Frutos secos</title>
  <g fill="#A66E3A" stroke="#5C3A18" stroke-width="1" stroke-linejoin="round">
    <path d="M12 3c4 0 7 3 7 7 0 4-2.5 8-7 11-4.5-3-7-7-7-11 0-4 3-7 7-7z"/>
  </g>
  <g fill="none" stroke="#5C3A18" stroke-width="0.7" stroke-linecap="round">
    <path d="M12 4v17"/>
    <path d="M9 7c1 1 2 2 3 2s2-1 3-2"/>
    <path d="M8 11c1.3 1 2.7 1.5 4 1.5s2.7-.5 4-1.5"/>
    <path d="M8.5 15c1.2 1 2.3 1.5 3.5 1.5s2.3-.5 3.5-1.5"/>
  </g>
</svg>
