<?xml version="1.0" encoding="UTF-8"?>
<svg xmlns="http://www.w3.org/2000/svg" viewBox="0 0 24 24" role="img" aria-hidden="true">
  <title>Gluten</title>
  <g fill="none" stroke="#8B6E1F" stroke-width="1.3" stroke-linecap="round" stroke-linejoin="round">
    <path d="M12 22V8"/>
    <path d="M12 8C12 5 10 3 8 3"/>
    <path d="M12 8C12 5 14 3 16 3"/>
  </g>
  <g fill="#C9A227" stroke="#8B6E1F" stroke-width="0.9" stroke-linejoin="round">
    <ellipse cx="9" cy="9.5" rx="2.2" ry="1.3" transform="rotate(-30 9 9.5)"/>
    <ellipse cx="15" cy="9.5" rx="2.2" ry="1.3" transform="rotate(30 15 9.5)"/>
    <ellipse cx="8.5" cy="13" rx="2.2" ry="1.3" transform="rotate(-30 8.5 13)"/>
    <ellipse cx="15.5" cy="13" rx="2.2" ry="1.3" transform="rotate(30 15.5 13)"/>
    <ellipse cx="8" cy="16.5" rx="2.2" ry="1.3" transform="rotate(-30 8 16.5)"/>
    <ellipse cx="16" cy="16.5" rx="2.2" ry="1.3" transform="rotate(30 16 16.5)"/>
  </g>
</svg>
