<svg xmlns="http://www.w3.org/2000/svg" viewBox="0 0 320 180" role="img" aria-label="Vista previa menú del día">
  <rect width="320" height="180" fill="#06152a"/>
  <rect x="0" y="0" width="148" height="180" fill="#0b1f3a"/>
  <rect x="148" y="0" width="172" height="180" fill="#3a1d0c"/>
  <ellipse cx="234" cy="92" rx="46" ry="38" fill="#7a3f1c"/>
  <ellipse cx="234" cy="92" rx="36" ry="26" fill="#a1582a"/>
  <ellipse cx="234" cy="92" rx="22" ry="14" fill="#c8783e"/>
  <text x="14" y="32" fill="#ffffff" font-family="system-ui,sans-serif" font-size="11" font-weight="800" letter-spacing="0.5">MENÚ DEL</text>
  <text x="14" y="46" fill="#ffffff" font-family="system-ui,sans-serif" font-size="11" font-weight="800" letter-spacing="0.5">DÍA</text>
  <text x="118" y="40" fill="#f3eee3" font-family="system-ui,sans-serif" font-size="14" font-weight="800" text-anchor="end">14¬</text>
  <rect x="14" y="56" width="120" height="1" fill="#ffffff" opacity="0.18"/>
  <text x="14" y="74" fill="#e9a233" font-family="system-ui,sans-serif" font-size="6" font-weight="700" letter-spacing="1.3">1ş PLATO</text>
  <rect x="14" y="80" width="86" height="3" rx="1" fill="#ffffff" opacity="0.85"/>
  <rect x="14" y="87" width="100" height="3" rx="1" fill="#ffffff" opacity="0.85"/>
  <text x="14" y="106" fill="#e9a233" font-family="system-ui,sans-serif" font-size="6" font-weight="700" letter-spacing="1.3">2ş PLATO</text>
  <rect x="14" y="112" width="92" height="3" rx="1" fill="#ffffff" opacity="0.85"/>
  <rect x="14" y="119" width="106" height="3" rx="1" fill="#ffffff" opacity="0.85"/>
  <text x="14" y="138" fill="#e9a233" font-family="system-ui,sans-serif" font-size="6" font-weight="700" letter-spacing="1.3">POSTRE</text>
  <rect x="14" y="144" width="78" height="3" rx="1" fill="#ffffff" opacity="0.85"/>
  <rect x="14" y="160" width="120" height="1" fill="#ffffff" opacity="0.14"/>
  <text x="14" y="170" fill="#ffffff" opacity="0.55" font-family="system-ui,sans-serif" font-size="5">Incluye pan, bebida y café</text>
</svg>
