<svg xmlns="http://www.w3.org/2000/svg" viewBox="0 0 320 180" role="img" aria-label="Vista previa carta completa">
  <rect width="320" height="180" fill="#0f1419"/>
  <rect x="12" y="12" width="296" height="24" rx="4" fill="#1a2332"/>
  <rect x="20" y="18" width="48" height="12" rx="2" fill="#004ac6" opacity="0.9"/>
  <text x="76" y="28" fill="#f5f7fa" font-family="system-ui,sans-serif" font-size="10" font-weight="700">ENTRANTES</text>
  <rect x="12" y="44" width="140" height="6" rx="2" fill="#2a3544"/>
  <rect x="12" y="56" width="120" height="4" rx="2" fill="#3d4a5c" opacity="0.7"/>
  <rect x="168" y="44" width="140" height="6" rx="2" fill="#2a3544"/>
  <rect x="168" y="56" width="100" height="4" rx="2" fill="#3d4a5c" opacity="0.7"/>
  <rect x="12" y="72" width="140" height="6" rx="2" fill="#2a3544"/>
  <rect x="168" y="72" width="140" height="6" rx="2" fill="#2a3544"/>
  <text x="12" y="100" fill="#004ac6" font-family="system-ui,sans-serif" font-size="10" font-weight="700">PRINCIPALES</text>
  <rect x="12" y="108" width="296" height="6" rx="2" fill="#2a3544"/>
  <rect x="12" y="120" width="280" height="6" rx="2" fill="#2a3544"/>
  <rect x="12" y="132" width="260" height="6" rx="2" fill="#2a3544"/>
  <circle cx="298" cy="158" r="14" fill="#004ac6" opacity="0.35"/>
  <text x="248" y="162" fill="#7eb8ff" font-family="system-ui,sans-serif" font-size="8">12,50 Č</text>
</svg>
