<svg xmlns="http://www.w3.org/2000/svg" viewBox="0 0 320 180" role="img" aria-label="Vista previa tapas / destacados hallmark">
  <defs>
    <radialGradient id="tapasGlow" cx="18%" cy="0%" r="120%">
      <stop offset="0%" stop-color="#c4a574" stop-opacity="0.35"/>
      <stop offset="55%" stop-color="#0a0908" stop-opacity="0"/>
    </radialGradient>
  </defs>
  <rect width="320" height="180" fill="#0a0908"/>
  <rect width="320" height="180" fill="url(#tapasGlow)"/>
  <line x1="48" y1="26" x2="118" y2="26" stroke="#c4a574" stroke-width="0.75" opacity="0.55"/>
  <circle cx="160" cy="22" r="9" fill="none" stroke="#c4a574" stroke-width="0.75" opacity="0.85"/>
  <path d="M160 16l1.2 3.6h3.8l-3.1 2.2 1.2 3.6L160 22.8l-3.1 2.2 1.2-3.6-3.1-2.2h3.8L160 16z" fill="none" stroke="#c4a574" stroke-width="0.6" stroke-linejoin="round"/>
  <text x="160" y="38" text-anchor="middle" fill="#f5f3ef" font-family="Georgia,serif" font-size="8" letter-spacing="1.5">DESTACADOS DE LA CASA</text>
  <line x1="202" y1="26" x2="272" y2="26" stroke="#c4a574" stroke-width="0.75" opacity="0.55"/>
  <g>
    <rect x="18" y="48" width="138" height="58" rx="7" fill="#111010" stroke="#c4a574" stroke-opacity="0.25"/>
    <rect x="18" y="48" width="138" height="40" rx="7" fill="#3a2818"/>
    <rect x="26" y="56" width="28" height="5" rx="1" fill="#c4a574"/>
    <rect x="18" y="88" width="138" height="18" fill="#080807"/>
    <rect x="26" y="94" width="52" height="3" rx="1" fill="#f5f3ef"/>
    <rect x="26" y="99" width="36" height="2" rx="1" fill="#8a8478" opacity="0.8"/>
    <rect x="118" y="93" width="28" height="7" rx="4" fill="#c4a574"/>
  </g>
  <g>
    <rect x="164" y="48" width="138" height="58" rx="7" fill="#111010" stroke="#c4a574" stroke-opacity="0.25"/>
    <rect x="164" y="48" width="138" height="40" rx="7" fill="#2a3a28"/>
    <rect x="18" y="110" width="138" height="58" rx="7" fill="#111010" stroke="#c4a574" stroke-opacity="0.25"/>
    <rect x="18" y="110" width="138" height="40" rx="7" fill="#4a1818"/>
    <rect x="164" y="110" width="138" height="58" rx="7" fill="#111010" stroke="#c4a574" stroke-opacity="0.25"/>
    <rect x="164" y="110" width="138" height="40" rx="7" fill="#3a2810"/>
  </g>
  <circle cx="156" cy="172" r="2" fill="#c4a574"/>
  <circle cx="164" cy="172" r="2" fill="#ffffff" opacity="0.25"/>
</svg>
