<svg xmlns="http://www.w3.org/2000/svg" viewBox="0 0 320 180" role="img" aria-label="Vista previa tapas / destacados">
  <defs>
    <radialGradient id="tapasGlow" cx="20%" cy="0%" r="120%">
      <stop offset="0%" stop-color="#3a5fd7" stop-opacity="0.45"/>
      <stop offset="55%" stop-color="#0f1115" stop-opacity="0"/>
    </radialGradient>
  </defs>
  <rect width="320" height="180" fill="#0f1115"/>
  <rect width="320" height="180" fill="url(#tapasGlow)"/>
  <line x1="40" y1="24" x2="118" y2="24" stroke="#e9a233" stroke-width="1" opacity="0.5"/>
  <text x="160" y="28" text-anchor="middle" fill="#f3eee3" font-family="system-ui,sans-serif" font-size="9" font-weight="800" letter-spacing="2">DESTACADOS</text>
  <line x1="202" y1="24" x2="280" y2="24" stroke="#e9a233" stroke-width="1" opacity="0.5"/>
  <g>
    <rect x="20" y="42" width="138" height="60" rx="6" fill="#1a1d28"/>
    <rect x="20" y="42" width="138" height="44" rx="6" fill="#6b3f1f"/>
    <circle cx="58" cy="64" r="14" fill="#c8783e"/>
    <circle cx="92" cy="62" r="11" fill="#b4641e"/>
    <rect x="20" y="86" width="138" height="16" fill="#0b1f3a"/>
    <rect x="28" y="92" width="56" height="3" rx="1" fill="#ffffff"/>
    <rect x="126" y="91" width="26" height="6" rx="3" fill="#e9a233"/>
  </g>
  <g>
    <rect x="162" y="42" width="138" height="60" rx="6" fill="#1a1d28"/>
    <rect x="162" y="42" width="138" height="44" rx="6" fill="#2a4a3a"/>
    <circle cx="200" cy="64" r="13" fill="#5fa14a"/>
    <circle cx="236" cy="62" r="10" fill="#7aba63"/>
    <rect x="162" y="86" width="138" height="16" fill="#0b1f3a"/>
    <rect x="170" y="92" width="48" height="3" rx="1" fill="#ffffff"/>
    <rect x="268" y="91" width="26" height="6" rx="3" fill="#e9a233"/>
  </g>
  <g>
    <rect x="20" y="108" width="138" height="60" rx="6" fill="#1a1d28"/>
    <rect x="20" y="108" width="138" height="44" rx="6" fill="#4a1818"/>
    <circle cx="58" cy="130" r="14" fill="#c63030"/>
    <circle cx="92" cy="128" r="11" fill="#a01818"/>
    <rect x="20" y="152" width="138" height="16" fill="#0b1f3a"/>
    <rect x="28" y="158" width="52" height="3" rx="1" fill="#ffffff"/>
    <rect x="126" y="157" width="26" height="6" rx="3" fill="#e9a233"/>
  </g>
  <g>
    <rect x="162" y="108" width="138" height="60" rx="6" fill="#1a1d28"/>
    <rect x="162" y="108" width="138" height="44" rx="6" fill="#3a2810"/>
    <circle cx="200" cy="130" r="13" fill="#d6863a"/>
    <circle cx="236" cy="128" r="10" fill="#a85a2a"/>
    <rect x="162" y="152" width="138" height="16" fill="#0b1f3a"/>
    <rect x="170" y="158" width="60" height="3" rx="1" fill="#ffffff"/>
    <rect x="268" y="157" width="26" height="6" rx="3" fill="#e9a233"/>
  </g>
</svg>
